<svg width="20" height="20" viewBox="0 0 20 20" fill="none" xmlns="http://www.w3.org/2000/svg">
<g clip-path="url(#clip0_24730_23533)">
<path fill-rule="evenodd" clip-rule="evenodd" d="M8.33464 15.001V17.501C8.33464 17.9612 8.70773 18.3343 9.16797 18.3343H10.8346C11.2949 18.3343 11.668 17.9612 11.668 17.501V15.001H13.3346V17.501C13.3346 18.8817 12.2153 20.001 10.8346 20.001H9.16797C7.78726 20.001 6.66797 18.8817 6.66797 17.501V15.001H8.33464Z" fill="#777E91"/>
<path fill-rule="evenodd" clip-rule="evenodd" d="M12.4987 11.0721L13.1229 10.5717C14.2694 9.65265 14.9987 8.24588 14.9987 6.66764C14.9987 3.90622 12.7601 1.66764 9.9987 1.66764C7.23727 1.66764 4.9987 3.90622 4.9987 6.66764C4.9987 8.24588 5.728 9.65265 6.87448 10.5717L7.4987 11.0721V13.3343C7.4987 13.7945 7.87179 14.1676 8.33203 14.1676H11.6654C12.1256 14.1676 12.4987 13.7945 12.4987 13.3343V11.0721ZM14.1654 11.8721V13.3343C14.1654 14.715 13.0461 15.8343 11.6654 15.8343H8.33203C6.95132 15.8343 5.83203 14.715 5.83203 13.3343V11.8721C4.30793 10.6504 3.33203 8.77296 3.33203 6.66764C3.33203 2.98575 6.3168 0.000976562 9.9987 0.000976562C13.6806 0.000976562 16.6654 2.98575 16.6654 6.66764C16.6654 8.77296 15.6895 10.6504 14.1654 11.8721Z" fill="#777E91"/>
<path d="M8.92259 6.91156C8.59715 6.58612 8.06951 6.58612 7.74408 6.91156C7.41864 7.23699 7.41864 7.76463 7.74408 8.09007L9.16667 9.51266V14.1675H10.8333V9.51266L12.2559 8.09007C12.5814 7.76463 12.5814 7.23699 12.2559 6.91156C11.9305 6.58612 11.4028 6.58612 11.0774 6.91156L10 7.98897L8.92259 6.91156Z" fill="#777E91"/>
</g>
<defs>
<clipPath id="clip0_24730_23533">
<rect width="20" height="20" fill="white" transform="translate(0 0.000976562)"/>
</clipPath>
</defs>
</svg>
