<svg width="24" height="24" viewBox="0 0 24 24" fill="none" xmlns="http://www.w3.org/2000/svg">
<path fill-rule="evenodd" clip-rule="evenodd" d="M17.7424 8H6.25797C5.10433 8 4.1899 8.97336 4.26187 10.1248L4.76187 18.1248C4.82775 19.1788 5.70185 20 6.75797 20H17.2424C18.2985 20 19.1726 19.1788 19.2385 18.1248L19.7385 10.1248C19.8104 8.97336 18.896 8 17.7424 8ZM6.25797 6C3.95069 6 2.12184 7.94672 2.26576 10.2495L2.76576 18.2495C2.89752 20.3577 4.64572 22 6.75797 22H17.2424C19.3546 22 21.1028 20.3577 21.2346 18.2495L21.7346 10.2495C21.8785 7.94672 20.0496 6 17.7424 6H6.25797Z" fill="#777E91"/>
<path fill-rule="evenodd" clip-rule="evenodd" d="M7 7C7 4.23858 9.23858 2 12 2C14.7614 2 17 4.23858 17 7V9C17 9.55228 16.5523 10 16 10C15.4477 10 15 9.55228 15 9V7C15 5.34315 13.6569 4 12 4C10.3431 4 9 5.34315 9 7V9C9 9.55228 8.55228 10 8 10C7.44772 10 7 9.55228 7 9V7Z" fill="#777E91"/>
</svg>
